<?xml version="1.0" standalone="no"?>
<!DOCTYPE svg PUBLIC "-//W3C//DTD SVG 20010904//EN"
 "http://www.w3.org/TR/2001/REC-SVG-20010904/DTD/svg10.dtd">
<svg version="1.0" xmlns="http://www.w3.org/2000/svg"
 width="200.000000pt" height="200.000000pt" viewBox="0 0 200.000000 200.000000"
 preserveAspectRatio="xMidYMid meet">
<metadata>
Created by potrace 1.14, written by Peter Selinger 2001-2017
</metadata>
<g transform="translate(0.000000,200.000000) scale(0.100000,-0.100000)"
fill="#000000" stroke="none">
<path d="M967 1989 c-10 -6 -22 -21 -27 -33 -7 -19 -19 -24 -62 -29 -84 -10
-144 -35 -197 -83 -68 -62 -96 -131 -116 -296 l-6 -47 -56 -3 c-47 -3 -59 -7
-76 -29 -17 -24 -18 -30 -6 -55 14 -28 17 -29 109 -34 l94 -5 12 -70 c44 -259
186 -425 364 -425 178 0 320 166 364 425 l12 70 94 5 c92 5 95 6 109 34 12 25
11 31 -6 55 -17 22 -29 26 -76 29 -55 3 -56 4 -61 35 -3 18 -9 63 -15 100 -17
114 -66 196 -147 243 -47 28 -132 54 -176 54 -20 0 -32 8 -42 29 -21 40 -53
51 -89 30z m-27 -253 c0 -69 2 -76 27 -95 28 -23 59 -20 81 7 7 9 12 46 12 90
l0 74 43 -7 c132 -22 192 -91 204 -235 l6 -70 -313 0 -313 0 6 63 c14 143 63
210 174 236 75 18 73 19 73 -63z m304 -398 c-24 -142 -87 -261 -163 -309 -56
-36 -101 -37 -156 -4 -82 47 -142 160 -169 313 l-5 32 249 0 250 0 -6 -32z"/>
<path d="M686 928 c-10 -6 -37 -30 -60 -53 -46 -49 -91 -65 -179 -65 -128 0
-190 -66 -231 -250 -23 -100 -40 -348 -31 -444 12 -129 -78 -116 815 -116
l769 0 22 22 c20 22 21 29 16 233 -5 238 -21 336 -68 432 -46 95 -78 115 -200
124 -109 7 -132 17 -187 81 -37 42 -78 51 -106 22 -32 -31 -20 -70 42 -131 68
-70 126 -93 225 -93 58 0 71 -3 92 -24 48 -48 85 -253 85 -468 l0 -78 -95 0
-95 0 0 75 c0 83 -18 115 -64 115 -43 0 -66 -43 -66 -121 l0 -69 -155 0 -155
0 0 255 c0 242 -1 256 -20 275 -26 26 -62 25 -86 -1 -17 -19 -19 -42 -22 -275
l-3 -255 -152 3 -152 3 -3 75 c-3 83 -18 110 -62 110 -44 0 -59 -27 -62 -110
l-3 -75 -92 -3 -93 -3 0 100 c0 213 33 396 81 447 19 21 32 24 88 24 82 0 123
11 183 49 54 34 108 103 108 137 0 12 -12 32 -26 43 -30 24 -32 24 -58 9z"/>
<path d="M517 542 c-22 -24 -21 -65 1 -85 15 -14 41 -17 139 -17 131 0 153 9
153 62 0 49 -25 58 -157 58 -103 0 -122 -3 -136 -18z"/>
</g>
</svg>
